<mxfile host="app.diagrams.net" modified="2024-04-01T18:39:56.374Z" agent="Mozilla/5.0 (Macintosh; Intel Mac OS X 10_15_7) AppleWebKit/537.36 (KHTML, like Gecko) Chrome/119.0.0.0 Safari/537.36" etag="yEkuEcZR1RvB_lkGSf0i" version="24.0.1" type="github">
  <diagram name="Page-1" id="6nO8YPJqQkaOiOuP65gm">
    <mxGraphModel dx="4201" dy="2338" grid="0" gridSize="10" guides="1" tooltips="1" connect="1" arrows="1" fold="1" page="1" pageScale="1" pageWidth="850" pageHeight="1100" math="0" shadow="0">
      <root>
        <mxCell id="0" />
        <mxCell id="1" parent="0" />
        <mxCell id="H8DN9-VGdh8TVqkd3BV_-25" style="edgeStyle=orthogonalEdgeStyle;rounded=0;orthogonalLoop=1;jettySize=auto;html=1;entryX=0;entryY=0.5;entryDx=0;entryDy=0;" edge="1" parent="1" target="H8DN9-VGdh8TVqkd3BV_-23">
          <mxGeometry relative="1" as="geometry">
            <mxPoint x="-2178" y="-968" as="sourcePoint" />
          </mxGeometry>
        </mxCell>
        <mxCell id="4dA7L_3wkGxWSaqCTqfy-18" value="" style="ellipse;shape=cloud;whiteSpace=wrap;html=1;" parent="1" vertex="1">
          <mxGeometry x="150" y="240" width="720" height="430" as="geometry" />
        </mxCell>
        <mxCell id="4dA7L_3wkGxWSaqCTqfy-9" value="" style="edgeStyle=orthogonalEdgeStyle;rounded=0;orthogonalLoop=1;jettySize=auto;html=1;" parent="1" source="4dA7L_3wkGxWSaqCTqfy-2" target="4dA7L_3wkGxWSaqCTqfy-6" edge="1">
          <mxGeometry relative="1" as="geometry" />
        </mxCell>
        <mxCell id="4dA7L_3wkGxWSaqCTqfy-2" value="Glide - FenixDeploymentSql" style="swimlane;whiteSpace=wrap;html=1;fillColor=#d5e8d4;strokeColor=#82b366;" parent="1" vertex="1">
          <mxGeometry x="-120" y="320" width="270" height="280" as="geometry" />
        </mxCell>
        <mxCell id="4dA7L_3wkGxWSaqCTqfy-3" value="&lt;div&gt;&lt;b&gt;Flink SQL:&lt;/b&gt;&lt;/div&gt;&lt;div&gt;&amp;nbsp; &amp;nbsp;CREATE TABLE metrics&lt;/div&gt;&lt;div&gt;&amp;nbsp; &amp;nbsp;(&lt;/div&gt;&lt;div&gt;&amp;nbsp; &amp;nbsp; &amp;nbsp; &amp;nbsp;`metricType`&amp;nbsp; STRING,&lt;/div&gt;&lt;div&gt;&amp;nbsp; &amp;nbsp; &amp;nbsp; &amp;nbsp;`metricValue` FLOAT,&lt;/div&gt;&lt;div&gt;&amp;nbsp; &amp;nbsp; &amp;nbsp; &amp;nbsp;`device`&amp;nbsp; &amp;nbsp; &amp;nbsp; STRING,&lt;/div&gt;&lt;div&gt;&amp;nbsp; &amp;nbsp; &amp;nbsp; &amp;nbsp;`timestamp`&amp;nbsp; &amp;nbsp;TIMESTAMP(3),&lt;/div&gt;&lt;div&gt;&amp;nbsp; &amp;nbsp; &amp;nbsp; &amp;nbsp;`user`&amp;nbsp; &amp;nbsp; &amp;nbsp; &amp;nbsp; STRING,&lt;/div&gt;&lt;div&gt;&amp;nbsp; &amp;nbsp; ) WITH ( ...&lt;/div&gt;" style="text;html=1;align=left;verticalAlign=middle;resizable=0;points=[];autosize=1;strokeColor=none;fillColor=none;" parent="4dA7L_3wkGxWSaqCTqfy-2" vertex="1">
          <mxGeometry x="15" y="100" width="210" height="140" as="geometry" />
        </mxCell>
        <mxCell id="4dA7L_3wkGxWSaqCTqfy-22" value="&lt;div&gt;&lt;b&gt;UDFs:&lt;/b&gt;&lt;br&gt;&amp;nbsp; &amp;nbsp;aggregate-udf@1.0.0::AggregateBy&lt;/div&gt;" style="text;html=1;align=left;verticalAlign=middle;resizable=0;points=[];autosize=1;strokeColor=none;fillColor=none;" parent="4dA7L_3wkGxWSaqCTqfy-2" vertex="1">
          <mxGeometry x="15" y="40" width="220" height="40" as="geometry" />
        </mxCell>
        <mxCell id="4dA7L_3wkGxWSaqCTqfy-6" value="&lt;div style=&quot;&quot;&gt;&lt;span style=&quot;background-color: initial;&quot;&gt;&lt;b&gt;Fenix&lt;/b&gt;&lt;/span&gt;&lt;/div&gt;" style="rounded=1;whiteSpace=wrap;html=1;align=center;fillColor=#f8cecc;strokeColor=#b85450;" parent="1" vertex="1">
          <mxGeometry x="320" y="360" width="120" height="200" as="geometry" />
        </mxCell>
        <mxCell id="4dA7L_3wkGxWSaqCTqfy-10" value="" style="endArrow=classic;html=1;rounded=0;entryX=0;entryY=0.5;entryDx=0;entryDy=0;exitX=1;exitY=0.5;exitDx=0;exitDy=0;" parent="1" source="4dA7L_3wkGxWSaqCTqfy-6" target="4dA7L_3wkGxWSaqCTqfy-17" edge="1">
          <mxGeometry relative="1" as="geometry">
            <mxPoint x="460" y="459.5" as="sourcePoint" />
            <mxPoint x="660" y="460" as="targetPoint" />
          </mxGeometry>
        </mxCell>
        <mxCell id="4dA7L_3wkGxWSaqCTqfy-11" value="FlinkDeployment" style="shape=document;html=1;outlineConnect=0;fillColor=#f5f5f5;fontColor=#333333;strokeColor=#666666;" parent="4dA7L_3wkGxWSaqCTqfy-10" vertex="1">
          <mxGeometry width="140" height="80" relative="1" as="geometry">
            <mxPoint x="-70" y="-25" as="offset" />
          </mxGeometry>
        </mxCell>
        <mxCell id="4dA7L_3wkGxWSaqCTqfy-17" value="&lt;div style=&quot;&quot;&gt;&lt;span style=&quot;background-color: initial;&quot;&gt;&lt;b&gt;Flink Job&lt;br&gt;&lt;br&gt;Sql Runner&lt;/b&gt;&lt;/span&gt;&lt;/div&gt;" style="rounded=1;whiteSpace=wrap;html=1;align=center;fillColor=#dae8fc;strokeColor=#6c8ebf;" parent="1" vertex="1">
          <mxGeometry x="640" y="360" width="120" height="200" as="geometry" />
        </mxCell>
        <mxCell id="4dA7L_3wkGxWSaqCTqfy-19" value="&lt;b&gt;snowsk8s&lt;/b&gt;" style="text;html=1;align=center;verticalAlign=middle;resizable=0;points=[];autosize=1;strokeColor=none;fillColor=none;" parent="1" vertex="1">
          <mxGeometry x="480" y="310" width="80" height="30" as="geometry" />
        </mxCell>
        <mxCell id="4dA7L_3wkGxWSaqCTqfy-30" style="edgeStyle=orthogonalEdgeStyle;rounded=0;orthogonalLoop=1;jettySize=auto;html=1;entryX=0;entryY=0.5;entryDx=0;entryDy=0;" parent="1" source="4dA7L_3wkGxWSaqCTqfy-24" target="4dA7L_3wkGxWSaqCTqfy-28" edge="1">
          <mxGeometry relative="1" as="geometry" />
        </mxCell>
        <mxCell id="4dA7L_3wkGxWSaqCTqfy-24" value="" style="swimlane;startSize=0;" parent="1" vertex="1">
          <mxGeometry x="-145" y="40" width="325" height="200" as="geometry" />
        </mxCell>
        <mxCell id="4dA7L_3wkGxWSaqCTqfy-25" value="&lt;b&gt;aggregate-udf.java&lt;/b&gt;" style="text;html=1;align=center;verticalAlign=middle;resizable=0;points=[];autosize=1;strokeColor=none;fillColor=none;" parent="4dA7L_3wkGxWSaqCTqfy-24" vertex="1">
          <mxGeometry x="95" width="130" height="30" as="geometry" />
        </mxCell>
        <mxCell id="4dA7L_3wkGxWSaqCTqfy-26" value="&lt;div&gt;import org.apache.flink.table.functions.ScalarFunction;&lt;/div&gt;&lt;div&gt;&lt;br&gt;&lt;/div&gt;&lt;div&gt;public class AggregateBy extends ScalarFunction {&lt;/div&gt;&lt;div&gt;&amp;nbsp; &amp;nbsp; public Float eval(String field) {&lt;/div&gt;&lt;div&gt;&amp;nbsp; &amp;nbsp; &amp;nbsp; &amp;nbsp; return ....&lt;/div&gt;&lt;div&gt;&amp;nbsp; &amp;nbsp; }&lt;/div&gt;&lt;div&gt;}&lt;/div&gt;&lt;div&gt;&lt;br&gt;&lt;/div&gt;" style="text;html=1;align=left;verticalAlign=middle;resizable=0;points=[];autosize=1;strokeColor=none;fillColor=none;" parent="4dA7L_3wkGxWSaqCTqfy-24" vertex="1">
          <mxGeometry x="10" y="60" width="310" height="130" as="geometry" />
        </mxCell>
        <mxCell id="4dA7L_3wkGxWSaqCTqfy-31" style="edgeStyle=orthogonalEdgeStyle;rounded=0;orthogonalLoop=1;jettySize=auto;html=1;entryX=0;entryY=0.5;entryDx=0;entryDy=0;" parent="1" source="4dA7L_3wkGxWSaqCTqfy-28" target="4dA7L_3wkGxWSaqCTqfy-29" edge="1">
          <mxGeometry relative="1" as="geometry" />
        </mxCell>
        <mxCell id="4dA7L_3wkGxWSaqCTqfy-28" value="&lt;b&gt;Jenkins&lt;/b&gt;" style="rounded=1;whiteSpace=wrap;html=1;fillColor=#fff2cc;strokeColor=#d6b656;" parent="1" vertex="1">
          <mxGeometry x="320" y="40" width="120" height="200" as="geometry" />
        </mxCell>
        <mxCell id="4dA7L_3wkGxWSaqCTqfy-32" style="edgeStyle=orthogonalEdgeStyle;rounded=0;orthogonalLoop=1;jettySize=auto;html=1;" parent="1" source="4dA7L_3wkGxWSaqCTqfy-29" target="4dA7L_3wkGxWSaqCTqfy-17" edge="1">
          <mxGeometry relative="1" as="geometry" />
        </mxCell>
        <mxCell id="4dA7L_3wkGxWSaqCTqfy-33" value="&lt;b&gt;aggregate-udf.jar&lt;/b&gt;" style="edgeLabel;html=1;align=center;verticalAlign=middle;resizable=0;points=[];" parent="4dA7L_3wkGxWSaqCTqfy-32" vertex="1" connectable="0">
          <mxGeometry x="-0.25" y="1" relative="1" as="geometry">
            <mxPoint as="offset" />
          </mxGeometry>
        </mxCell>
        <mxCell id="4dA7L_3wkGxWSaqCTqfy-29" value="&lt;b&gt;Artifactory&lt;/b&gt;" style="rounded=1;whiteSpace=wrap;html=1;fillColor=#d5e8d4;strokeColor=#82b366;" parent="1" vertex="1">
          <mxGeometry x="640" y="40" width="120" height="200" as="geometry" />
        </mxCell>
        <mxCell id="H8DN9-VGdh8TVqkd3BV_-1" value="Flink SQL Developer" style="shape=umlActor;verticalLabelPosition=bottom;verticalAlign=top;html=1;outlineConnect=0;" vertex="1" parent="1">
          <mxGeometry x="-2457" y="-567" width="30" height="60" as="geometry" />
        </mxCell>
        <mxCell id="H8DN9-VGdh8TVqkd3BV_-4" value="Glide App Developer&lt;div&gt;&lt;br&gt;&lt;/div&gt;" style="shape=umlActor;verticalLabelPosition=bottom;verticalAlign=top;html=1;outlineConnect=0;" vertex="1" parent="1">
          <mxGeometry x="-2455" y="-196" width="30" height="60" as="geometry" />
        </mxCell>
        <mxCell id="H8DN9-VGdh8TVqkd3BV_-8" value="Flink Java Developer &quot;Expert&quot;" style="shape=umlActor;verticalLabelPosition=bottom;verticalAlign=top;html=1;outlineConnect=0;" vertex="1" parent="1">
          <mxGeometry x="-2455" y="-956" width="30" height="60" as="geometry" />
        </mxCell>
        <mxCell id="H8DN9-VGdh8TVqkd3BV_-31" value="" style="edgeStyle=orthogonalEdgeStyle;rounded=0;orthogonalLoop=1;jettySize=auto;html=1;" edge="1" parent="1" source="H8DN9-VGdh8TVqkd3BV_-16" target="H8DN9-VGdh8TVqkd3BV_-30">
          <mxGeometry relative="1" as="geometry" />
        </mxCell>
        <mxCell id="H8DN9-VGdh8TVqkd3BV_-16" value="Glide" style="rounded=1;whiteSpace=wrap;html=1;" vertex="1" parent="1">
          <mxGeometry x="-2319" y="-873" width="141" height="88" as="geometry" />
        </mxCell>
        <mxCell id="H8DN9-VGdh8TVqkd3BV_-17" value="Fenix Deployment" style="shape=document;whiteSpace=wrap;html=1;boundedLbl=1;" vertex="1" parent="1">
          <mxGeometry x="-2219" y="-815" width="120" height="80" as="geometry" />
        </mxCell>
        <mxCell id="H8DN9-VGdh8TVqkd3BV_-27" value="" style="edgeStyle=orthogonalEdgeStyle;rounded=0;orthogonalLoop=1;jettySize=auto;html=1;" edge="1" parent="1" source="H8DN9-VGdh8TVqkd3BV_-23" target="H8DN9-VGdh8TVqkd3BV_-26">
          <mxGeometry relative="1" as="geometry" />
        </mxCell>
        <mxCell id="H8DN9-VGdh8TVqkd3BV_-23" value="Jenkins" style="shape=process;whiteSpace=wrap;html=1;backgroundOutline=1;" vertex="1" parent="1">
          <mxGeometry x="-2042" y="-998" width="120" height="60" as="geometry" />
        </mxCell>
        <mxCell id="H8DN9-VGdh8TVqkd3BV_-32" value="" style="edgeStyle=orthogonalEdgeStyle;rounded=0;orthogonalLoop=1;jettySize=auto;html=1;dashed=1;" edge="1" parent="1" source="H8DN9-VGdh8TVqkd3BV_-26" target="H8DN9-VGdh8TVqkd3BV_-30">
          <mxGeometry relative="1" as="geometry" />
        </mxCell>
        <mxCell id="H8DN9-VGdh8TVqkd3BV_-26" value="Artifactory" style="ellipse;shape=cloud;whiteSpace=wrap;html=1;" vertex="1" parent="1">
          <mxGeometry x="-1820" y="-1008" width="120" height="80" as="geometry" />
        </mxCell>
        <mxCell id="H8DN9-VGdh8TVqkd3BV_-30" value="k8s / Fenix" style="ellipse;shape=cloud;whiteSpace=wrap;html=1;rounded=1;" vertex="1" parent="1">
          <mxGeometry x="-1820" y="-869" width="120" height="80" as="geometry" />
        </mxCell>
        <mxCell id="H8DN9-VGdh8TVqkd3BV_-33" value="Glide" style="rounded=1;whiteSpace=wrap;html=1;" vertex="1" parent="1">
          <mxGeometry x="-2323" y="-235" width="141" height="88" as="geometry" />
        </mxCell>
        <mxCell id="H8DN9-VGdh8TVqkd3BV_-34" value="Fenix Job Graph JSON" style="shape=document;whiteSpace=wrap;html=1;boundedLbl=1;" vertex="1" parent="1">
          <mxGeometry x="-2207" y="-163" width="120" height="80" as="geometry" />
        </mxCell>
        <mxCell id="H8DN9-VGdh8TVqkd3BV_-35" value="JS User Defined Func" style="shape=document;whiteSpace=wrap;html=1;boundedLbl=1;" vertex="1" parent="1">
          <mxGeometry x="-2207" y="-285" width="140" height="73" as="geometry" />
        </mxCell>
        <mxCell id="H8DN9-VGdh8TVqkd3BV_-36" value="JS User Defined Func" style="shape=document;whiteSpace=wrap;html=1;boundedLbl=1;" vertex="1" parent="1">
          <mxGeometry x="-2199" y="-271" width="140" height="73" as="geometry" />
        </mxCell>
        <mxCell id="H8DN9-VGdh8TVqkd3BV_-39" value="" style="edgeStyle=orthogonalEdgeStyle;rounded=0;orthogonalLoop=1;jettySize=auto;html=1;exitX=1;exitY=0.5;exitDx=0;exitDy=0;" edge="1" parent="1" source="H8DN9-VGdh8TVqkd3BV_-33" target="H8DN9-VGdh8TVqkd3BV_-38">
          <mxGeometry relative="1" as="geometry" />
        </mxCell>
        <mxCell id="H8DN9-VGdh8TVqkd3BV_-37" value="Javascript User Defined Function (aggregate, etc)" style="shape=document;whiteSpace=wrap;html=1;boundedLbl=1;" vertex="1" parent="1">
          <mxGeometry x="-2189" y="-254" width="140" height="73" as="geometry" />
        </mxCell>
        <mxCell id="H8DN9-VGdh8TVqkd3BV_-38" value="k8s / Fenix" style="ellipse;shape=cloud;whiteSpace=wrap;html=1;" vertex="1" parent="1">
          <mxGeometry x="-1938" y="-270" width="240" height="158" as="geometry" />
        </mxCell>
        <mxCell id="H8DN9-VGdh8TVqkd3BV_-40" value="Fenix Job Processor / Runner" style="shape=process;whiteSpace=wrap;html=1;backgroundOutline=1;" vertex="1" parent="1">
          <mxGeometry x="-1784" y="-281" width="238" height="46" as="geometry" />
        </mxCell>
        <mxCell id="H8DN9-VGdh8TVqkd3BV_-41" value="Fenix Job Processor / Runner" style="shape=process;whiteSpace=wrap;html=1;backgroundOutline=1;" vertex="1" parent="1">
          <mxGeometry x="-1768" y="-214" width="238" height="46" as="geometry" />
        </mxCell>
        <mxCell id="H8DN9-VGdh8TVqkd3BV_-42" value="Fenix Job Processor / Runner" style="shape=process;whiteSpace=wrap;html=1;backgroundOutline=1;" vertex="1" parent="1">
          <mxGeometry x="-1784" y="-151" width="238" height="46" as="geometry" />
        </mxCell>
        <mxCell id="H8DN9-VGdh8TVqkd3BV_-43" value="Flink Job" style="shape=process;whiteSpace=wrap;html=1;backgroundOutline=1;" vertex="1" parent="1">
          <mxGeometry x="-1733" y="-815" width="127" height="33" as="geometry" />
        </mxCell>
        <mxCell id="H8DN9-VGdh8TVqkd3BV_-62" value="" style="edgeStyle=orthogonalEdgeStyle;rounded=0;orthogonalLoop=1;jettySize=auto;html=1;" edge="1" parent="1" source="H8DN9-VGdh8TVqkd3BV_-45" target="H8DN9-VGdh8TVqkd3BV_-61">
          <mxGeometry relative="1" as="geometry" />
        </mxCell>
        <mxCell id="H8DN9-VGdh8TVqkd3BV_-45" value="Glide" style="rounded=1;whiteSpace=wrap;html=1;" vertex="1" parent="1">
          <mxGeometry x="-2319" y="-499" width="141" height="88" as="geometry" />
        </mxCell>
        <mxCell id="H8DN9-VGdh8TVqkd3BV_-46" value="Fenix Deployment" style="shape=document;whiteSpace=wrap;html=1;boundedLbl=1;" vertex="1" parent="1">
          <mxGeometry x="-2219" y="-441" width="120" height="80" as="geometry" />
        </mxCell>
        <mxCell id="H8DN9-VGdh8TVqkd3BV_-49" value="Dev SNC" style="rounded=1;whiteSpace=wrap;html=1;" vertex="1" parent="1">
          <mxGeometry x="-2319" y="-1012" width="141" height="88" as="geometry" />
        </mxCell>
        <mxCell id="H8DN9-VGdh8TVqkd3BV_-50" value="Flink Java" style="swimlane;whiteSpace=wrap;html=1;glass=0;" vertex="1" parent="1">
          <mxGeometry x="-2216" y="-968" width="94" height="81" as="geometry" />
        </mxCell>
        <mxCell id="H8DN9-VGdh8TVqkd3BV_-51" value="" style="rounded=0;whiteSpace=wrap;html=1;" vertex="1" parent="H8DN9-VGdh8TVqkd3BV_-50">
          <mxGeometry y="22" width="94" height="59" as="geometry" />
        </mxCell>
        <mxCell id="H8DN9-VGdh8TVqkd3BV_-58" value="" style="edgeStyle=orthogonalEdgeStyle;rounded=0;orthogonalLoop=1;jettySize=auto;html=1;" edge="1" parent="1" source="H8DN9-VGdh8TVqkd3BV_-52" target="H8DN9-VGdh8TVqkd3BV_-57">
          <mxGeometry relative="1" as="geometry" />
        </mxCell>
        <mxCell id="H8DN9-VGdh8TVqkd3BV_-52" value="??????" style="rounded=1;whiteSpace=wrap;html=1;" vertex="1" parent="1">
          <mxGeometry x="-2319" y="-637" width="141" height="88" as="geometry" />
        </mxCell>
        <mxCell id="H8DN9-VGdh8TVqkd3BV_-53" value="Flink SQL" style="swimlane;whiteSpace=wrap;html=1;glass=0;" vertex="1" parent="1">
          <mxGeometry x="-2216" y="-593" width="94" height="81" as="geometry" />
        </mxCell>
        <mxCell id="H8DN9-VGdh8TVqkd3BV_-54" value="" style="rounded=0;whiteSpace=wrap;html=1;" vertex="1" parent="H8DN9-VGdh8TVqkd3BV_-53">
          <mxGeometry y="22" width="94" height="59" as="geometry" />
        </mxCell>
        <mxCell id="H8DN9-VGdh8TVqkd3BV_-60" value="" style="edgeStyle=orthogonalEdgeStyle;rounded=0;orthogonalLoop=1;jettySize=auto;html=1;" edge="1" parent="1" source="H8DN9-VGdh8TVqkd3BV_-57" target="H8DN9-VGdh8TVqkd3BV_-59">
          <mxGeometry relative="1" as="geometry" />
        </mxCell>
        <mxCell id="H8DN9-VGdh8TVqkd3BV_-57" value="??????" style="shape=process;whiteSpace=wrap;html=1;backgroundOutline=1;" vertex="1" parent="1">
          <mxGeometry x="-2049" y="-627.25" width="128" height="68.5" as="geometry" />
        </mxCell>
        <mxCell id="H8DN9-VGdh8TVqkd3BV_-59" value="????" style="rounded=1;whiteSpace=wrap;html=1;" vertex="1" parent="1">
          <mxGeometry x="-1828" y="-623" width="120" height="60" as="geometry" />
        </mxCell>
        <mxCell id="H8DN9-VGdh8TVqkd3BV_-61" value="k8s / Fenix" style="ellipse;shape=cloud;whiteSpace=wrap;html=1;rounded=1;" vertex="1" parent="1">
          <mxGeometry x="-1828" y="-495" width="120" height="80" as="geometry" />
        </mxCell>
        <mxCell id="H8DN9-VGdh8TVqkd3BV_-63" value="Flink Job" style="shape=process;whiteSpace=wrap;html=1;backgroundOutline=1;" vertex="1" parent="1">
          <mxGeometry x="-1744" y="-444" width="127" height="33" as="geometry" />
        </mxCell>
      </root>
    </mxGraphModel>
  </diagram>
</mxfile>
